<?xml version="1.0" encoding="UTF-8" standalone="no"?><svg xmlns="http://www.w3.org/2000/svg" xmlns:xlink="http://www.w3.org/1999/xlink" contentScriptType="application/ecmascript" contentStyleType="text/css" height="496px" preserveAspectRatio="none" style="width:1221px;height:496px;" version="1.1" viewBox="0 0 1221 496" width="1221px" zoomAndPan="magnify"><defs><filter height="300%" id="foezbby" width="300%" x="-1" y="-1"><feGaussianBlur result="blurOut" stdDeviation="2.0"/><feColorMatrix in="blurOut" result="blurOut2" type="matrix" values="0 0 0 0 0 0 0 0 0 0 0 0 0 0 0 0 0 0 .4 0"/><feOffset dx="4.0" dy="4.0" in="blurOut2" result="blurOut3"/><feBlend in="SourceGraphic" in2="blurOut3" mode="normal"/></filter></defs><g><!--cluster Helpers--><polygon fill="#FFFFFF" filter="url(#foezbby)" points="68.5,245,135.5,245,142.5,267.2969,238.5,267.2969,238.5,395,68.5,395,68.5,245" style="stroke: #000000; stroke-width: 2.0;"/><line style="stroke: #000000; stroke-width: 2.0;" x1="68.5" x2="142.5" y1="267.2969" y2="267.2969"/><text fill="#000000" font-family="sans-serif" font-size="14" font-weight="bold" lengthAdjust="spacingAndGlyphs" textLength="61" x="72.5" y="259.9951">Helpers</text><!--cluster Model--><polygon fill="#FFFFFF" filter="url(#foezbby)" points="270.5,97,323.5,97,330.5,119.2969,1214.5,119.2969,1214.5,396.5,270.5,396.5,270.5,97" style="stroke: #000000; stroke-width: 2.0;"/><line style="stroke: #000000; stroke-width: 2.0;" x1="270.5" x2="330.5" y1="119.2969" y2="119.2969"/><text fill="#000000" font-family="sans-serif" font-size="14" font-weight="bold" lengthAdjust="spacingAndGlyphs" textLength="47" x="274.5" y="111.9951">Model</text><polygon fill="#FFFFFF" filter="url(#foezbby)" points="184,144,229,144,236,166.2969,243,166.2969,243,196.5938,184,196.5938,184,144" style="stroke: #000000; stroke-width: 2.0;"/><line style="stroke: #000000; stroke-width: 2.0;" x1="184" x2="236" y1="166.2969" y2="166.2969"/><text fill="#000000" font-family="sans-serif" font-size="14" font-weight="bold" lengthAdjust="spacingAndGlyphs" textLength="39" x="188" y="158.9951">View</text><polygon fill="#FFFFFF" filter="url(#foezbby)" points="206.5,8,270.5,8,277.5,30.2969,284.5,30.2969,284.5,60.5938,206.5,60.5938,206.5,8" style="stroke: #000000; stroke-width: 2.0;"/><line style="stroke: #000000; stroke-width: 2.0;" x1="206.5" x2="277.5" y1="30.2969" y2="30.2969"/><text fill="#000000" font-family="sans-serif" font-size="14" font-weight="bold" lengthAdjust="spacingAndGlyphs" textLength="58" x="210.5" y="22.9951">Control</text><!--class ConfigFileReader--><rect fill="#FEFECE" filter="url(#foezbby)" height="99.2188" style="stroke: #A80036; stroke-width: 1.5;" width="137" x="85" y="280"/><ellipse cx="100" cy="296" fill="#ADD1B2" rx="11" ry="11" style="stroke: #A80036; stroke-width: 1.0;"/><path d="M102.3438,291.6719 L102.5156,291.75 C102.7344,291.4375 102.9375,291.3438 103.2344,291.3438 C103.5313,291.3438 103.8125,291.4844 103.9688,291.75 C104.0625,291.9063 104.0781,292.0313 104.0781,292.4688 L104.0781,293.8906 C104.0781,294.3125 104.0469,294.5 103.9375,294.6563 C103.7656,294.875 103.5,295.0156 103.2344,295.0156 C103.0156,295.0156 102.7813,294.9063 102.6406,294.7656 C102.5,294.6406 102.4688,294.5156 102.4063,294.1094 C102.3125,293.7031 102.1406,293.4844 101.6563,293.2031 C101.1875,292.9531 100.5781,292.7969 100,292.7969 C98.2656,292.7969 97.0156,294.1094 97.0156,295.8906 L97.0156,296.9844 C97.0156,298.6875 98.3125,299.7813 100.3594,299.7813 C101.125,299.7813 101.8125,299.6563 102.2344,299.3906 C102.4219,299.2969 102.4219,299.2969 102.875,298.8125 C103.0625,298.625 103.2656,298.5469 103.4844,298.5469 C103.9531,298.5469 104.3438,298.9375 104.3438,299.3906 C104.3438,299.7813 104.0156,300.2344 103.4375,300.6406 C102.6875,301.1875 101.5313,301.4844 100.3125,301.4844 C97.4219,301.4844 95.3125,299.5938 95.3125,297.0156 L95.3125,295.8906 C95.3125,293.1719 97.3125,291.0938 99.9375,291.0938 C100.8125,291.0938 101.4063,291.2344 102.3438,291.6719 Z "/><text fill="#000000" font-family="sans-serif" font-size="12" lengthAdjust="spacingAndGlyphs" textLength="105" x="114" y="300.1543">ConfigFileReader</text><line style="stroke: #A80036; stroke-width: 1.5;" x1="86" x2="221" y1="312" y2="312"/><line style="stroke: #A80036; stroke-width: 1.5;" x1="86" x2="221" y1="320" y2="320"/><text fill="#000000" font-family="sans-serif" font-size="11" lengthAdjust="spacingAndGlyphs" textLength="81" x="91" y="334.2104">getLanguage()</text><text fill="#000000" font-family="sans-serif" font-size="11" lengthAdjust="spacingAndGlyphs" textLength="81" x="91" y="347.0151">setLanguage()</text><text fill="#000000" font-family="sans-serif" font-size="11" lengthAdjust="spacingAndGlyphs" textLength="92" x="91" y="359.8198">getDateFormat()</text><text fill="#000000" font-family="sans-serif" font-size="11" lengthAdjust="spacingAndGlyphs" textLength="92" x="91" y="372.6245">setDateFormat()</text><!--class OsAdapter--><rect fill="#FEFECE" filter="url(#foezbby)" height="86.4141" style="stroke: #A80036; stroke-width: 1.5;" width="98" x="969.5" y="286.5"/><ellipse cx="984.5" cy="302.5" fill="#ADD1B2" rx="11" ry="11" style="stroke: #A80036; stroke-width: 1.0;"/><path d="M986.8438,298.1719 L987.0156,298.25 C987.2344,297.9375 987.4375,297.8438 987.7344,297.8438 C988.0313,297.8438 988.3125,297.9844 988.4688,298.25 C988.5625,298.4063 988.5781,298.5313 988.5781,298.9688 L988.5781,300.3906 C988.5781,300.8125 988.5469,301 988.4375,301.1563 C988.2656,301.375 988,301.5156 987.7344,301.5156 C987.5156,301.5156 987.2813,301.4063 987.1406,301.2656 C987,301.1406 986.9688,301.0156 986.9063,300.6094 C986.8125,300.2031 986.6406,299.9844 986.1563,299.7031 C985.6875,299.4531 985.0781,299.2969 984.5,299.2969 C982.7656,299.2969 981.5156,300.6094 981.5156,302.3906 L981.5156,303.4844 C981.5156,305.1875 982.8125,306.2813 984.8594,306.2813 C985.625,306.2813 986.3125,306.1563 986.7344,305.8906 C986.9219,305.7969 986.9219,305.7969 987.375,305.3125 C987.5625,305.125 987.7656,305.0469 987.9844,305.0469 C988.4531,305.0469 988.8438,305.4375 988.8438,305.8906 C988.8438,306.2813 988.5156,306.7344 987.9375,307.1406 C987.1875,307.6875 986.0313,307.9844 984.8125,307.9844 C981.9219,307.9844 979.8125,306.0938 979.8125,303.5156 L979.8125,302.3906 C979.8125,299.6719 981.8125,297.5938 984.4375,297.5938 C985.3125,297.5938 985.9063,297.7344 986.8438,298.1719 Z "/><text fill="#000000" font-family="sans-serif" font-size="12" lengthAdjust="spacingAndGlyphs" textLength="66" x="998.5" y="306.6543">OsAdapter</text><line style="stroke: #A80036; stroke-width: 1.5;" x1="970.5" x2="1066.5" y1="318.5" y2="318.5"/><line style="stroke: #A80036; stroke-width: 1.5;" x1="970.5" x2="1066.5" y1="326.5" y2="326.5"/><text fill="#000000" font-family="sans-serif" font-size="11" lengthAdjust="spacingAndGlyphs" textLength="52" x="975.5" y="340.7104">setDate()</text><text fill="#000000" font-family="sans-serif" font-size="11" lengthAdjust="spacingAndGlyphs" textLength="52" x="975.5" y="353.5151">getDate()</text><text fill="#000000" font-family="sans-serif" font-size="11" lengthAdjust="spacingAndGlyphs" textLength="58" x="975.5" y="366.3198">osPopUp()</text><!--class Reminder--><rect fill="#FEFECE" filter="url(#foezbby)" height="60.8047" style="stroke: #A80036; stroke-width: 1.5;" width="91" x="1099" y="140"/><ellipse cx="1114" cy="156" fill="#ADD1B2" rx="11" ry="11" style="stroke: #A80036; stroke-width: 1.0;"/><path d="M1116.3438,151.6719 L1116.5156,151.75 C1116.7344,151.4375 1116.9375,151.3438 1117.2344,151.3438 C1117.5313,151.3438 1117.8125,151.4844 1117.9688,151.75 C1118.0625,151.9063 1118.0781,152.0313 1118.0781,152.4688 L1118.0781,153.8906 C1118.0781,154.3125 1118.0469,154.5 1117.9375,154.6563 C1117.7656,154.875 1117.5,155.0156 1117.2344,155.0156 C1117.0156,155.0156 1116.7813,154.9063 1116.6406,154.7656 C1116.5,154.6406 1116.4688,154.5156 1116.4063,154.1094 C1116.3125,153.7031 1116.1406,153.4844 1115.6563,153.2031 C1115.1875,152.9531 1114.5781,152.7969 1114,152.7969 C1112.2656,152.7969 1111.0156,154.1094 1111.0156,155.8906 L1111.0156,156.9844 C1111.0156,158.6875 1112.3125,159.7813 1114.3594,159.7813 C1115.125,159.7813 1115.8125,159.6563 1116.2344,159.3906 C1116.4219,159.2969 1116.4219,159.2969 1116.875,158.8125 C1117.0625,158.625 1117.2656,158.5469 1117.4844,158.5469 C1117.9531,158.5469 1118.3438,158.9375 1118.3438,159.3906 C1118.3438,159.7813 1118.0156,160.2344 1117.4375,160.6406 C1116.6875,161.1875 1115.5313,161.4844 1114.3125,161.4844 C1111.4219,161.4844 1109.3125,159.5938 1109.3125,157.0156 L1109.3125,155.8906 C1109.3125,153.1719 1111.3125,151.0938 1113.9375,151.0938 C1114.8125,151.0938 1115.4063,151.2344 1116.3438,151.6719 Z "/><text fill="#000000" font-family="sans-serif" font-size="12" lengthAdjust="spacingAndGlyphs" textLength="59" x="1128" y="160.1543">Reminder</text><line style="stroke: #A80036; stroke-width: 1.5;" x1="1100" x2="1189" y1="172" y2="172"/><text fill="#000000" font-family="sans-serif" font-size="11" lengthAdjust="spacingAndGlyphs" textLength="54" x="1105" y="186.2104">date/time</text><line style="stroke: #A80036; stroke-width: 1.5;" x1="1100" x2="1189" y1="192.8047" y2="192.8047"/><!--class JPA--><rect fill="#FEFECE" filter="url(#foezbby)" height="73.6094" style="stroke: #A80036; stroke-width: 1.5;" width="55" x="1117" y="292.5"/><ellipse cx="1133.8" cy="308.5" fill="#ADD1B2" rx="11" ry="11" style="stroke: #A80036; stroke-width: 1.0;"/><path d="M1136.1438,304.1719 L1136.3156,304.25 C1136.5344,303.9375 1136.7375,303.8438 1137.0344,303.8438 C1137.3313,303.8438 1137.6125,303.9844 1137.7688,304.25 C1137.8625,304.4063 1137.8781,304.5313 1137.8781,304.9688 L1137.8781,306.3906 C1137.8781,306.8125 1137.8469,307 1137.7375,307.1563 C1137.5656,307.375 1137.3,307.5156 1137.0344,307.5156 C1136.8156,307.5156 1136.5813,307.4063 1136.4406,307.2656 C1136.3,307.1406 1136.2688,307.0156 1136.2063,306.6094 C1136.1125,306.2031 1135.9406,305.9844 1135.4563,305.7031 C1134.9875,305.4531 1134.3781,305.2969 1133.8,305.2969 C1132.0656,305.2969 1130.8156,306.6094 1130.8156,308.3906 L1130.8156,309.4844 C1130.8156,311.1875 1132.1125,312.2813 1134.1594,312.2813 C1134.925,312.2813 1135.6125,312.1563 1136.0344,311.8906 C1136.2219,311.7969 1136.2219,311.7969 1136.675,311.3125 C1136.8625,311.125 1137.0656,311.0469 1137.2844,311.0469 C1137.7531,311.0469 1138.1438,311.4375 1138.1438,311.8906 C1138.1438,312.2813 1137.8156,312.7344 1137.2375,313.1406 C1136.4875,313.6875 1135.3313,313.9844 1134.1125,313.9844 C1131.2219,313.9844 1129.1125,312.0938 1129.1125,309.5156 L1129.1125,308.3906 C1129.1125,305.6719 1131.1125,303.5938 1133.7375,303.5938 C1134.6125,303.5938 1135.2063,303.7344 1136.1438,304.1719 Z "/><text fill="#000000" font-family="sans-serif" font-size="12" lengthAdjust="spacingAndGlyphs" textLength="19" x="1148.2" y="312.6543">JPA</text><line style="stroke: #A80036; stroke-width: 1.5;" x1="1118" x2="1171" y1="324.5" y2="324.5"/><text fill="#000000" font-family="sans-serif" font-size="11" lengthAdjust="spacingAndGlyphs" textLength="41" x="1123" y="338.7104">readDb</text><text fill="#000000" font-family="sans-serif" font-size="11" lengthAdjust="spacingAndGlyphs" textLength="43" x="1123" y="351.5151">writeDb</text><line style="stroke: #A80036; stroke-width: 1.5;" x1="1118" x2="1171" y1="358.1094" y2="358.1094"/><!--class Remider--><rect fill="#FEFECE" filter="url(#foezbby)" height="48" style="stroke: #A80036; stroke-width: 1.5;" width="83" x="314" y="146.5"/><ellipse cx="329" cy="162.5" fill="#ADD1B2" rx="11" ry="11" style="stroke: #A80036; stroke-width: 1.0;"/><path d="M331.3438,158.1719 L331.5156,158.25 C331.7344,157.9375 331.9375,157.8438 332.2344,157.8438 C332.5313,157.8438 332.8125,157.9844 332.9688,158.25 C333.0625,158.4063 333.0781,158.5313 333.0781,158.9688 L333.0781,160.3906 C333.0781,160.8125 333.0469,161 332.9375,161.1563 C332.7656,161.375 332.5,161.5156 332.2344,161.5156 C332.0156,161.5156 331.7813,161.4063 331.6406,161.2656 C331.5,161.1406 331.4688,161.0156 331.4063,160.6094 C331.3125,160.2031 331.1406,159.9844 330.6563,159.7031 C330.1875,159.4531 329.5781,159.2969 329,159.2969 C327.2656,159.2969 326.0156,160.6094 326.0156,162.3906 L326.0156,163.4844 C326.0156,165.1875 327.3125,166.2813 329.3594,166.2813 C330.125,166.2813 330.8125,166.1563 331.2344,165.8906 C331.4219,165.7969 331.4219,165.7969 331.875,165.3125 C332.0625,165.125 332.2656,165.0469 332.4844,165.0469 C332.9531,165.0469 333.3438,165.4375 333.3438,165.8906 C333.3438,166.2813 333.0156,166.7344 332.4375,167.1406 C331.6875,167.6875 330.5313,167.9844 329.3125,167.9844 C326.4219,167.9844 324.3125,166.0938 324.3125,163.5156 L324.3125,162.3906 C324.3125,159.6719 326.3125,157.5938 328.9375,157.5938 C329.8125,157.5938 330.4063,157.7344 331.3438,158.1719 Z "/><text fill="#000000" font-family="sans-serif" font-size="12" lengthAdjust="spacingAndGlyphs" textLength="51" x="343" y="166.6543">Remider</text><line style="stroke: #A80036; stroke-width: 1.5;" x1="315" x2="396" y1="178.5" y2="178.5"/><line style="stroke: #A80036; stroke-width: 1.5;" x1="315" x2="396" y1="186.5" y2="186.5"/><!--class Notification--><rect fill="#FEFECE" filter="url(#foezbby)" height="48" style="stroke: #A80036; stroke-width: 1.5;" width="103" x="621" y="305.5"/><ellipse cx="636" cy="321.5" fill="#ADD1B2" rx="11" ry="11" style="stroke: #A80036; stroke-width: 1.0;"/><path d="M638.3438,317.1719 L638.5156,317.25 C638.7344,316.9375 638.9375,316.8438 639.2344,316.8438 C639.5313,316.8438 639.8125,316.9844 639.9688,317.25 C640.0625,317.4063 640.0781,317.5313 640.0781,317.9688 L640.0781,319.3906 C640.0781,319.8125 640.0469,320 639.9375,320.1563 C639.7656,320.375 639.5,320.5156 639.2344,320.5156 C639.0156,320.5156 638.7813,320.4063 638.6406,320.2656 C638.5,320.1406 638.4688,320.0156 638.4063,319.6094 C638.3125,319.2031 638.1406,318.9844 637.6563,318.7031 C637.1875,318.4531 636.5781,318.2969 636,318.2969 C634.2656,318.2969 633.0156,319.6094 633.0156,321.3906 L633.0156,322.4844 C633.0156,324.1875 634.3125,325.2813 636.3594,325.2813 C637.125,325.2813 637.8125,325.1563 638.2344,324.8906 C638.4219,324.7969 638.4219,324.7969 638.875,324.3125 C639.0625,324.125 639.2656,324.0469 639.4844,324.0469 C639.9531,324.0469 640.3438,324.4375 640.3438,324.8906 C640.3438,325.2813 640.0156,325.7344 639.4375,326.1406 C638.6875,326.6875 637.5313,326.9844 636.3125,326.9844 C633.4219,326.9844 631.3125,325.0938 631.3125,322.5156 L631.3125,321.3906 C631.3125,318.6719 633.3125,316.5938 635.9375,316.5938 C636.8125,316.5938 637.4063,316.7344 638.3438,317.1719 Z "/><text fill="#000000" font-family="sans-serif" font-size="12" lengthAdjust="spacingAndGlyphs" textLength="71" x="650" y="325.6543">Notification</text><line style="stroke: #A80036; stroke-width: 1.5;" x1="622" x2="723" y1="337.5" y2="337.5"/><line style="stroke: #A80036; stroke-width: 1.5;" x1="622" x2="723" y1="345.5" y2="345.5"/><!--class JavaFxPopUp--><rect fill="#FEFECE" filter="url(#foezbby)" height="48" style="stroke: #A80036; stroke-width: 1.5;" width="111" x="799" y="146.5"/><ellipse cx="814" cy="162.5" fill="#ADD1B2" rx="11" ry="11" style="stroke: #A80036; stroke-width: 1.0;"/><path d="M816.3438,158.1719 L816.5156,158.25 C816.7344,157.9375 816.9375,157.8438 817.2344,157.8438 C817.5313,157.8438 817.8125,157.9844 817.9688,158.25 C818.0625,158.4063 818.0781,158.5313 818.0781,158.9688 L818.0781,160.3906 C818.0781,160.8125 818.0469,161 817.9375,161.1563 C817.7656,161.375 817.5,161.5156 817.2344,161.5156 C817.0156,161.5156 816.7813,161.4063 816.6406,161.2656 C816.5,161.1406 816.4688,161.0156 816.4063,160.6094 C816.3125,160.2031 816.1406,159.9844 815.6563,159.7031 C815.1875,159.4531 814.5781,159.2969 814,159.2969 C812.2656,159.2969 811.0156,160.6094 811.0156,162.3906 L811.0156,163.4844 C811.0156,165.1875 812.3125,166.2813 814.3594,166.2813 C815.125,166.2813 815.8125,166.1563 816.2344,165.8906 C816.4219,165.7969 816.4219,165.7969 816.875,165.3125 C817.0625,165.125 817.2656,165.0469 817.4844,165.0469 C817.9531,165.0469 818.3438,165.4375 818.3438,165.8906 C818.3438,166.2813 818.0156,166.7344 817.4375,167.1406 C816.6875,167.6875 815.5313,167.9844 814.3125,167.9844 C811.4219,167.9844 809.3125,166.0938 809.3125,163.5156 L809.3125,162.3906 C809.3125,159.6719 811.3125,157.5938 813.9375,157.5938 C814.8125,157.5938 815.4063,157.7344 816.3438,158.1719 Z "/><text fill="#000000" font-family="sans-serif" font-size="12" lengthAdjust="spacingAndGlyphs" textLength="79" x="828" y="166.6543">JavaFxPopUp</text><line style="stroke: #A80036; stroke-width: 1.5;" x1="800" x2="909" y1="178.5" y2="178.5"/><line style="stroke: #A80036; stroke-width: 1.5;" x1="800" x2="909" y1="186.5" y2="186.5"/><!--class SystemPopUp--><rect fill="#FEFECE" filter="url(#foezbby)" height="48" style="stroke: #A80036; stroke-width: 1.5;" width="118" x="945.5" y="146.5"/><ellipse cx="960.5" cy="162.5" fill="#ADD1B2" rx="11" ry="11" style="stroke: #A80036; stroke-width: 1.0;"/><path d="M962.8438,158.1719 L963.0156,158.25 C963.2344,157.9375 963.4375,157.8438 963.7344,157.8438 C964.0313,157.8438 964.3125,157.9844 964.4688,158.25 C964.5625,158.4063 964.5781,158.5313 964.5781,158.9688 L964.5781,160.3906 C964.5781,160.8125 964.5469,161 964.4375,161.1563 C964.2656,161.375 964,161.5156 963.7344,161.5156 C963.5156,161.5156 963.2813,161.4063 963.1406,161.2656 C963,161.1406 962.9688,161.0156 962.9063,160.6094 C962.8125,160.2031 962.6406,159.9844 962.1563,159.7031 C961.6875,159.4531 961.0781,159.2969 960.5,159.2969 C958.7656,159.2969 957.5156,160.6094 957.5156,162.3906 L957.5156,163.4844 C957.5156,165.1875 958.8125,166.2813 960.8594,166.2813 C961.625,166.2813 962.3125,166.1563 962.7344,165.8906 C962.9219,165.7969 962.9219,165.7969 963.375,165.3125 C963.5625,165.125 963.7656,165.0469 963.9844,165.0469 C964.4531,165.0469 964.8438,165.4375 964.8438,165.8906 C964.8438,166.2813 964.5156,166.7344 963.9375,167.1406 C963.1875,167.6875 962.0313,167.9844 960.8125,167.9844 C957.9219,167.9844 955.8125,166.0938 955.8125,163.5156 L955.8125,162.3906 C955.8125,159.6719 957.8125,157.5938 960.4375,157.5938 C961.3125,157.5938 961.9063,157.7344 962.8438,158.1719 Z "/><text fill="#000000" font-family="sans-serif" font-size="12" lengthAdjust="spacingAndGlyphs" textLength="86" x="974.5" y="166.6543">SystemPopUp</text><line style="stroke: #A80036; stroke-width: 1.5;" x1="946.5" x2="1062.5" y1="178.5" y2="178.5"/><line style="stroke: #A80036; stroke-width: 1.5;" x1="946.5" x2="1062.5" y1="186.5" y2="186.5"/><!--class Email--><rect fill="#FEFECE" filter="url(#foezbby)" height="48" style="stroke: #A80036; stroke-width: 1.5;" width="65" x="699" y="146.5"/><ellipse cx="714" cy="162.5" fill="#ADD1B2" rx="11" ry="11" style="stroke: #A80036; stroke-width: 1.0;"/><path d="M716.3438,158.1719 L716.5156,158.25 C716.7344,157.9375 716.9375,157.8438 717.2344,157.8438 C717.5313,157.8438 717.8125,157.9844 717.9688,158.25 C718.0625,158.4063 718.0781,158.5313 718.0781,158.9688 L718.0781,160.3906 C718.0781,160.8125 718.0469,161 717.9375,161.1563 C717.7656,161.375 717.5,161.5156 717.2344,161.5156 C717.0156,161.5156 716.7813,161.4063 716.6406,161.2656 C716.5,161.1406 716.4688,161.0156 716.4063,160.6094 C716.3125,160.2031 716.1406,159.9844 715.6563,159.7031 C715.1875,159.4531 714.5781,159.2969 714,159.2969 C712.2656,159.2969 711.0156,160.6094 711.0156,162.3906 L711.0156,163.4844 C711.0156,165.1875 712.3125,166.2813 714.3594,166.2813 C715.125,166.2813 715.8125,166.1563 716.2344,165.8906 C716.4219,165.7969 716.4219,165.7969 716.875,165.3125 C717.0625,165.125 717.2656,165.0469 717.4844,165.0469 C717.9531,165.0469 718.3438,165.4375 718.3438,165.8906 C718.3438,166.2813 718.0156,166.7344 717.4375,167.1406 C716.6875,167.6875 715.5313,167.9844 714.3125,167.9844 C711.4219,167.9844 709.3125,166.0938 709.3125,163.5156 L709.3125,162.3906 C709.3125,159.6719 711.3125,157.5938 713.9375,157.5938 C714.8125,157.5938 715.4063,157.7344 716.3438,158.1719 Z "/><text fill="#000000" font-family="sans-serif" font-size="12" lengthAdjust="spacingAndGlyphs" textLength="33" x="728" y="166.6543">Email</text><line style="stroke: #A80036; stroke-width: 1.5;" x1="700" x2="763" y1="178.5" y2="178.5"/><line style="stroke: #A80036; stroke-width: 1.5;" x1="700" x2="763" y1="186.5" y2="186.5"/><!--class IFTTTEvent--><rect fill="#FEFECE" filter="url(#foezbby)" height="48" style="stroke: #A80036; stroke-width: 1.5;" width="98" x="565.5" y="146.5"/><ellipse cx="580.5" cy="162.5" fill="#ADD1B2" rx="11" ry="11" style="stroke: #A80036; stroke-width: 1.0;"/><path d="M582.8438,158.1719 L583.0156,158.25 C583.2344,157.9375 583.4375,157.8438 583.7344,157.8438 C584.0313,157.8438 584.3125,157.9844 584.4688,158.25 C584.5625,158.4063 584.5781,158.5313 584.5781,158.9688 L584.5781,160.3906 C584.5781,160.8125 584.5469,161 584.4375,161.1563 C584.2656,161.375 584,161.5156 583.7344,161.5156 C583.5156,161.5156 583.2813,161.4063 583.1406,161.2656 C583,161.1406 582.9688,161.0156 582.9063,160.6094 C582.8125,160.2031 582.6406,159.9844 582.1563,159.7031 C581.6875,159.4531 581.0781,159.2969 580.5,159.2969 C578.7656,159.2969 577.5156,160.6094 577.5156,162.3906 L577.5156,163.4844 C577.5156,165.1875 578.8125,166.2813 580.8594,166.2813 C581.625,166.2813 582.3125,166.1563 582.7344,165.8906 C582.9219,165.7969 582.9219,165.7969 583.375,165.3125 C583.5625,165.125 583.7656,165.0469 583.9844,165.0469 C584.4531,165.0469 584.8438,165.4375 584.8438,165.8906 C584.8438,166.2813 584.5156,166.7344 583.9375,167.1406 C583.1875,167.6875 582.0313,167.9844 580.8125,167.9844 C577.9219,167.9844 575.8125,166.0938 575.8125,163.5156 L575.8125,162.3906 C575.8125,159.6719 577.8125,157.5938 580.4375,157.5938 C581.3125,157.5938 581.9063,157.7344 582.8438,158.1719 Z "/><text fill="#000000" font-family="sans-serif" font-size="12" lengthAdjust="spacingAndGlyphs" textLength="66" x="594.5" y="166.6543">IFTTTEvent</text><line style="stroke: #A80036; stroke-width: 1.5;" x1="566.5" x2="662.5" y1="178.5" y2="178.5"/><line style="stroke: #A80036; stroke-width: 1.5;" x1="566.5" x2="662.5" y1="186.5" y2="186.5"/><!--class ShellScript--><rect fill="#FEFECE" filter="url(#foezbby)" height="48" style="stroke: #A80036; stroke-width: 1.5;" width="98" x="432.5" y="146.5"/><ellipse cx="447.5" cy="162.5" fill="#ADD1B2" rx="11" ry="11" style="stroke: #A80036; stroke-width: 1.0;"/><path d="M449.8438,158.1719 L450.0156,158.25 C450.2344,157.9375 450.4375,157.8438 450.7344,157.8438 C451.0313,157.8438 451.3125,157.9844 451.4688,158.25 C451.5625,158.4063 451.5781,158.5313 451.5781,158.9688 L451.5781,160.3906 C451.5781,160.8125 451.5469,161 451.4375,161.1563 C451.2656,161.375 451,161.5156 450.7344,161.5156 C450.5156,161.5156 450.2813,161.4063 450.1406,161.2656 C450,161.1406 449.9688,161.0156 449.9063,160.6094 C449.8125,160.2031 449.6406,159.9844 449.1563,159.7031 C448.6875,159.4531 448.0781,159.2969 447.5,159.2969 C445.7656,159.2969 444.5156,160.6094 444.5156,162.3906 L444.5156,163.4844 C444.5156,165.1875 445.8125,166.2813 447.8594,166.2813 C448.625,166.2813 449.3125,166.1563 449.7344,165.8906 C449.9219,165.7969 449.9219,165.7969 450.375,165.3125 C450.5625,165.125 450.7656,165.0469 450.9844,165.0469 C451.4531,165.0469 451.8438,165.4375 451.8438,165.8906 C451.8438,166.2813 451.5156,166.7344 450.9375,167.1406 C450.1875,167.6875 449.0313,167.9844 447.8125,167.9844 C444.9219,167.9844 442.8125,166.0938 442.8125,163.5156 L442.8125,162.3906 C442.8125,159.6719 444.8125,157.5938 447.4375,157.5938 C448.3125,157.5938 448.9063,157.7344 449.8438,158.1719 Z "/><text fill="#000000" font-family="sans-serif" font-size="12" lengthAdjust="spacingAndGlyphs" textLength="66" x="461.5" y="166.6543">ShellScript</text><line style="stroke: #A80036; stroke-width: 1.5;" x1="433.5" x2="529.5" y1="178.5" y2="178.5"/><line style="stroke: #A80036; stroke-width: 1.5;" x1="433.5" x2="529.5" y1="186.5" y2="186.5"/><!--class OS--><rect fill="#FEFECE" filter="url(#foezbby)" height="48" style="stroke: #A80036; stroke-width: 1.5;" width="49" x="994" y="439"/><ellipse cx="1009" cy="455" fill="#ADD1B2" rx="11" ry="11" style="stroke: #A80036; stroke-width: 1.0;"/><path d="M1011.3438,450.6719 L1011.5156,450.75 C1011.7344,450.4375 1011.9375,450.3438 1012.2344,450.3438 C1012.5313,450.3438 1012.8125,450.4844 1012.9688,450.75 C1013.0625,450.9063 1013.0781,451.0313 1013.0781,451.4688 L1013.0781,452.8906 C1013.0781,453.3125 1013.0469,453.5 1012.9375,453.6563 C1012.7656,453.875 1012.5,454.0156 1012.2344,454.0156 C1012.0156,454.0156 1011.7813,453.9063 1011.6406,453.7656 C1011.5,453.6406 1011.4688,453.5156 1011.4063,453.1094 C1011.3125,452.7031 1011.1406,452.4844 1010.6563,452.2031 C1010.1875,451.9531 1009.5781,451.7969 1009,451.7969 C1007.2656,451.7969 1006.0156,453.1094 1006.0156,454.8906 L1006.0156,455.9844 C1006.0156,457.6875 1007.3125,458.7813 1009.3594,458.7813 C1010.125,458.7813 1010.8125,458.6563 1011.2344,458.3906 C1011.4219,458.2969 1011.4219,458.2969 1011.875,457.8125 C1012.0625,457.625 1012.2656,457.5469 1012.4844,457.5469 C1012.9531,457.5469 1013.3438,457.9375 1013.3438,458.3906 C1013.3438,458.7813 1013.0156,459.2344 1012.4375,459.6406 C1011.6875,460.1875 1010.5313,460.4844 1009.3125,460.4844 C1006.4219,460.4844 1004.3125,458.5938 1004.3125,456.0156 L1004.3125,454.8906 C1004.3125,452.1719 1006.3125,450.0938 1008.9375,450.0938 C1009.8125,450.0938 1010.4063,450.2344 1011.3438,450.6719 Z "/><text fill="#000000" font-family="sans-serif" font-size="12" lengthAdjust="spacingAndGlyphs" textLength="17" x="1023" y="459.1543">OS</text><line style="stroke: #A80036; stroke-width: 1.5;" x1="995" x2="1042" y1="471" y2="471"/><line style="stroke: #A80036; stroke-width: 1.5;" x1="995" x2="1042" y1="479" y2="479"/><!--class ConfigFile--><rect fill="#FEFECE" filter="url(#foezbby)" height="99.2188" style="stroke: #A80036; stroke-width: 1.5;" width="143" x="6" y="121"/><ellipse cx="43.95" cy="137" fill="#ADD1B2" rx="11" ry="11" style="stroke: #A80036; stroke-width: 1.0;"/><path d="M46.2938,132.6719 L46.4656,132.75 C46.6844,132.4375 46.8875,132.3438 47.1844,132.3438 C47.4813,132.3438 47.7625,132.4844 47.9188,132.75 C48.0125,132.9063 48.0281,133.0313 48.0281,133.4688 L48.0281,134.8906 C48.0281,135.3125 47.9969,135.5 47.8875,135.6563 C47.7156,135.875 47.45,136.0156 47.1844,136.0156 C46.9656,136.0156 46.7313,135.9063 46.5906,135.7656 C46.45,135.6406 46.4188,135.5156 46.3563,135.1094 C46.2625,134.7031 46.0906,134.4844 45.6063,134.2031 C45.1375,133.9531 44.5281,133.7969 43.95,133.7969 C42.2156,133.7969 40.9656,135.1094 40.9656,136.8906 L40.9656,137.9844 C40.9656,139.6875 42.2625,140.7813 44.3094,140.7813 C45.075,140.7813 45.7625,140.6563 46.1844,140.3906 C46.3719,140.2969 46.3719,140.2969 46.825,139.8125 C47.0125,139.625 47.2156,139.5469 47.4344,139.5469 C47.9031,139.5469 48.2938,139.9375 48.2938,140.3906 C48.2938,140.7813 47.9656,141.2344 47.3875,141.6406 C46.6375,142.1875 45.4813,142.4844 44.2625,142.4844 C41.3719,142.4844 39.2625,140.5938 39.2625,138.0156 L39.2625,136.8906 C39.2625,134.1719 41.2625,132.0938 43.8875,132.0938 C44.7625,132.0938 45.3563,132.2344 46.2938,132.6719 Z "/><text fill="#000000" font-family="sans-serif" font-size="12" lengthAdjust="spacingAndGlyphs" textLength="60" x="63.05" y="141.1543">ConfigFile</text><line style="stroke: #A80036; stroke-width: 1.5;" x1="7" x2="148" y1="153" y2="153"/><text fill="#000000" font-family="sans-serif" font-size="11" lengthAdjust="spacingAndGlyphs" textLength="52" x="12" y="167.2104">language</text><text fill="#000000" font-family="sans-serif" font-size="11" lengthAdjust="spacingAndGlyphs" textLength="131" x="12" y="180.0151">timeFormat/localization</text><text fill="#000000" font-family="sans-serif" font-size="11" lengthAdjust="spacingAndGlyphs" textLength="21" x="12" y="192.8198">Db?</text><text fill="#000000" font-family="sans-serif" font-size="11" lengthAdjust="spacingAndGlyphs" textLength="64" x="12" y="205.6245">MailConfig?</text><line style="stroke: #A80036; stroke-width: 1.5;" x1="7" x2="148" y1="212.2188" y2="212.2188"/><!--class DB--><rect fill="#FEFECE" filter="url(#foezbby)" height="48" style="stroke: #A80036; stroke-width: 1.5;" width="49" x="1120" y="439"/><ellipse cx="1135" cy="455" fill="#ADD1B2" rx="11" ry="11" style="stroke: #A80036; stroke-width: 1.0;"/><path d="M1137.3438,450.6719 L1137.5156,450.75 C1137.7344,450.4375 1137.9375,450.3438 1138.2344,450.3438 C1138.5313,450.3438 1138.8125,450.4844 1138.9688,450.75 C1139.0625,450.9063 1139.0781,451.0313 1139.0781,451.4688 L1139.0781,452.8906 C1139.0781,453.3125 1139.0469,453.5 1138.9375,453.6563 C1138.7656,453.875 1138.5,454.0156 1138.2344,454.0156 C1138.0156,454.0156 1137.7813,453.9063 1137.6406,453.7656 C1137.5,453.6406 1137.4688,453.5156 1137.4063,453.1094 C1137.3125,452.7031 1137.1406,452.4844 1136.6563,452.2031 C1136.1875,451.9531 1135.5781,451.7969 1135,451.7969 C1133.2656,451.7969 1132.0156,453.1094 1132.0156,454.8906 L1132.0156,455.9844 C1132.0156,457.6875 1133.3125,458.7813 1135.3594,458.7813 C1136.125,458.7813 1136.8125,458.6563 1137.2344,458.3906 C1137.4219,458.2969 1137.4219,458.2969 1137.875,457.8125 C1138.0625,457.625 1138.2656,457.5469 1138.4844,457.5469 C1138.9531,457.5469 1139.3438,457.9375 1139.3438,458.3906 C1139.3438,458.7813 1139.0156,459.2344 1138.4375,459.6406 C1137.6875,460.1875 1136.5313,460.4844 1135.3125,460.4844 C1132.4219,460.4844 1130.3125,458.5938 1130.3125,456.0156 L1130.3125,454.8906 C1130.3125,452.1719 1132.3125,450.0938 1134.9375,450.0938 C1135.8125,450.0938 1136.4063,450.2344 1137.3438,450.6719 Z "/><text fill="#000000" font-family="sans-serif" font-size="12" lengthAdjust="spacingAndGlyphs" textLength="17" x="1149" y="459.1543">DB</text><line style="stroke: #A80036; stroke-width: 1.5;" x1="1121" x2="1168" y1="471" y2="471"/><line style="stroke: #A80036; stroke-width: 1.5;" x1="1121" x2="1168" y1="479" y2="479"/><path d="M1018.5,372.831 C1018.5,394.755 1018.5,420.6747 1018.5,438.9016 " fill="none" style="stroke: #A80036; stroke-width: 1.0;"/><path d="M1120.8,201.03 C1101.48,225.102 1073.95,259.403 1052.32,286.361 " fill="none" style="stroke: #A80036; stroke-width: 1.0;"/><path d="M1144.5,201.03 C1144.5,226.968 1144.5,264.781 1144.5,292.487 " fill="none" style="stroke: #A80036; stroke-width: 1.0;"/><path d="M380.425,194.706 C390.513,203.353 402.58,212.805 414.5,220 C481.893,260.678 567.308,293.322 620.949,311.81 " fill="none" style="stroke: #A80036; stroke-width: 1.0;"/><path d="M827.645,194.666 C797.854,220.365 749.402,262.161 714.566,292.212 " fill="none" style="stroke: #A80036; stroke-width: 1.0;"/><polygon fill="none" points="718.885,297.731,699.168,305.495,709.74,287.131,718.885,297.731" style="stroke: #A80036; stroke-width: 1.0;"/><path d="M970.314,194.678 C957.198,203.129 941.917,212.454 927.5,220 C867.024,251.653 795.26,281.546 743.293,301.908 " fill="none" style="stroke: #A80036; stroke-width: 1.0;"/><polygon fill="none" points="745.589,308.526,724.411,309.229,740.528,295.473,745.589,308.526" style="stroke: #A80036; stroke-width: 1.0;"/><path d="M722.794,194.666 C713.749,218.737 699.396,256.931 688.334,286.367 " fill="none" style="stroke: #A80036; stroke-width: 1.0;"/><polygon fill="none" points="694.733,289.236,681.145,305.495,681.628,284.311,694.733,289.236" style="stroke: #A80036; stroke-width: 1.0;"/><path d="M623.058,194.666 C631.951,218.737 646.06,256.931 656.935,286.367 " fill="none" style="stroke: #A80036; stroke-width: 1.0;"/><polygon fill="none" points="663.637,284.308,664.001,305.495,650.504,289.16,663.637,284.308" style="stroke: #A80036; stroke-width: 1.0;"/><path d="M509.683,194.666 C541.088,220.481 592.256,262.54 628.849,292.619 " fill="none" style="stroke: #A80036; stroke-width: 1.0;"/><polygon fill="none" points="633.508,287.387,644.513,305.495,624.618,298.202,633.508,287.387" style="stroke: #A80036; stroke-width: 1.0;"/><path d="M1006.57,194.666 C1008.71,218.72 1012.11,256.877 1014.74,286.304 " fill="none" style="stroke: #A80036; stroke-width: 1.0;"/><path d="M243.207,170.5 C248.9975,170.5 254.7878,170.5 260.578,170.5 C263.4731,170.5 266.3683,170.5 269.2634,170.5 C269.6253,170.5 269.9872,170.5 270.3491,170.5 C270.3943,170.5 270.4396,170.5 270.4848,170.5 " fill="none" style="stroke: #A80036; stroke-width: 1.0;"/><path d="M270.4523,124.6936 C269.5153,120.0045 268.513,115.1526 267.4544,110.2454 C265.3373,100.431 262.995,90.3955 260.5,81 C258.792,74.569 256.687,67.714 254.599,61.328 " fill="none" style="stroke: #A80036; stroke-width: 1.0;"/><path d="M239.406,61.02 C233.748,84.712 225.366,119.812 219.681,143.619 " fill="none" style="stroke: #A80036; stroke-width: 1.0;"/><path d="M101.1303,220.315 C110.324,239.308 120.835,261.02 130.015,279.985 " fill="none" style="stroke: #A80036; stroke-width: 1.0;"/><path d="M203.726,197.074 C195.192,219.405 182.571,252.431 172.115,279.79 " fill="none" style="stroke: #A80036; stroke-width: 1.0;"/><path d="M1114.16,201.022 C1104.48,208.65 1093.22,215.87 1081.5,220 C999.324,248.965 380.896,211.762 297.5,237 C267.732,246.009 238.158,263.02 213.627,279.954 " fill="none" style="stroke: #A80036; stroke-width: 1.0;"/><path d="M1144.5,366.781 C1144.5,389.7397 1144.5,418.7425 1144.5,438.6715 " fill="none" style="stroke: #A80036; stroke-width: 1.0;"/></g></svg>